<svg width="44" height="44" viewBox="0 0 44 44" fill="none" xmlns="http://www.w3.org/2000/svg">
<path d="M22 0.644531L22.232 0.721875L43.5445 8.28437L44 8.44766V8.9375V33.6875V34.143L43.5789 34.3234L22.2664 43.2609L22 43.3727L21.7336 43.2609L0.421094 34.3234L0 34.143V33.6875V8.9375V8.45625L0.455469 8.29297L21.768 0.730469L22 0.653125V0.644531ZM1.375 33.232L21.3125 41.5937V18.3305L1.375 9.96875V33.232ZM22.6875 41.5937L42.625 33.232V9.96875L22.6875 18.3305V41.5937ZM22 2.10547L2.59531 8.98906L22 17.1273L41.4047 8.98906L22 2.10547Z" fill="#008DE4"/>
</svg>
