<svg width="49" height="54" viewBox="0 0 49 54" fill="none" xmlns="http://www.w3.org/2000/svg">
<path d="M48.65 11.28C48.42 10.92 48.1 10.64 47.71 10.46L25.43 0.199998C24.84 -0.0700024 24.15 -0.0700024 23.57 0.199998L1.28 10.46C0.89 10.64 0.57 10.92 0.34 11.28C0.12 11.63 0 12.05 0 12.47V41.53C0 41.95 0.12 42.37 0.35 42.72C0.58 43.08 0.9 43.36 1.29 43.54L23.58 53.8C23.87 53.93 24.19 54 24.51 54C24.83 54 25.15 53.93 25.44 53.8L47.73 43.54C48.11 43.36 48.44 43.08 48.67 42.72C48.9 42.36 49.02 41.95 49.02 41.53V12.47C49.02 12.05 48.9 11.63 48.67 11.28H48.65ZM22.28 24.14V48.34L4.42 40.12V15.91L22.28 24.13V24.14ZM41.49 12.47L24.5 20.3L7.51 12.47L24.5 4.64L41.49 12.47ZM44.57 15.92V40.12L26.71 48.34V24.14L44.57 15.92Z" fill="url(#paint0_linear_101_3)"/>
<defs>
<linearGradient id="paint0_linear_101_3" x1="24.51" y1="-0.00250244" x2="24.51" y2="54" gradientUnits="userSpaceOnUse">
<stop stop-color="#0E75B5"/>
<stop offset="1" stop-color="#156496"/>
</linearGradient>
</defs>
</svg>
