<svg width="48" height="53" viewBox="0 0 48 53" fill="none" xmlns="http://www.w3.org/2000/svg">
<path d="M47.0057 10.4145L24.72 0.158079C24.4943 0.0539401 24.2487 0 24 0C23.7513 0 23.5057 0.0539401 23.28 0.158079L0.994291 10.4145C0.696725 10.5518 0.444895 10.7714 0.268663 11.0471C0.0924323 11.3228 -0.000806099 11.6431 5.25041e-06 11.9701V41.0299C-0.000806099 41.3569 0.0924323 41.6772 0.268663 41.9529C0.444895 42.2286 0.696725 42.4482 0.994291 42.5855L23.28 52.8419C23.5057 52.9461 23.7513 53 24 53C24.2487 53 24.4943 52.9461 24.72 52.8419L47.0057 42.5855C47.3033 42.4482 47.5551 42.2286 47.7313 41.9529C47.9076 41.6772 48.0008 41.3569 48 41.0299V11.9701C48.0008 11.6431 47.9076 11.3228 47.7313 11.0471C47.5551 10.7714 47.3033 10.5518 47.0057 10.4145ZM24 3.59398L42.1886 11.9701L24 20.3461L5.81143 11.9701L24 3.59398ZM3.42858 14.6367L22.2857 23.3205V48.6197L3.42858 39.9359V14.6367ZM25.7143 48.6197V23.3205L44.5714 14.6367V39.9359L25.7143 48.6197Z" fill="url(#paint0_linear_79_202)"/>
<defs>
<linearGradient id="paint0_linear_79_202" x1="24" y1="0" x2="24" y2="53" gradientUnits="userSpaceOnUse">
<stop stop-color="#0E75B5"/>
<stop offset="1" stop-color="#156496"/>
</linearGradient>
</defs>
</svg>
