<svg width="49" height="49" viewBox="0 0 49 49" fill="none" xmlns="http://www.w3.org/2000/svg">
<path fill-rule="evenodd" clip-rule="evenodd" d="M12.471 1.54554C13.7001 0.931005 15.1665 0.208328 17.8752 0.208328C20.5837 0.208328 22.0502 0.930939 23.2794 1.54547L23.3145 1.56307C24.2765 2.04414 25.0211 2.41646 26.7085 2.41651C29.4404 2.41662 31.0585 1.39798 31.598 0.992552C32.4378 0.36141 33.43 0.414631 34.115 0.731482C34.8089 1.05242 35.5418 1.81818 35.5418 2.94993V26.7083H42.1668C45.8243 26.7083 48.7918 29.6708 48.7918 33.3311V39.9583C48.7918 42.001 48.2749 43.6798 47.3858 45.0134C46.506 46.3331 45.3486 47.1853 44.2586 47.7303C43.1771 48.2712 42.1224 48.5304 41.3566 48.6581C40.8968 48.7347 40.4258 48.7925 39.9585 48.7917H9.04183C6.99917 48.7917 5.32035 48.2747 3.98678 47.3856C2.66706 46.5058 1.81482 45.3484 1.26975 44.2584C0.729044 43.177 0.469676 42.1223 0.342056 41.3566C0.277374 40.9684 0.244183 40.6403 0.227046 40.4004C0.21278 40.2006 0.208562 40.0822 0.208496 39.9583V2.94989C0.208496 1.81818 0.941309 1.05242 1.63521 0.731482C2.32028 0.414609 3.31255 0.361388 4.15234 0.992485C4.69183 1.39791 6.30988 2.41651 9.04183 2.41651C10.7293 2.41651 11.4738 2.0442 12.4358 1.56314L12.471 1.54554ZM4.63249 39.9583L4.62516 6.13486C5.81806 6.5369 7.29133 6.83317 9.04183 6.83317C11.7505 6.83317 13.2169 6.11052 14.446 5.49598L14.4812 5.47838C15.4432 4.99732 16.1877 4.625 17.8752 4.625C19.5627 4.625 20.3072 4.9973 21.2691 5.47836L21.3043 5.49594C22.5334 6.11045 23.9998 6.83311 26.7085 6.83317C28.459 6.83324 29.9322 6.53699 31.1252 6.1349V39.9583C31.1252 41.6875 31.4957 43.156 32.1487 44.375H9.04183C7.77199 44.375 6.96644 44.0638 6.43672 43.7107C5.89317 43.3483 5.50322 42.8495 5.22015 42.2833C4.93274 41.7084 4.77805 41.1069 4.69863 40.6305C4.66131 40.4064 4.63868 40.1845 4.63249 39.9583ZM40.6307 44.3015C41.107 44.2222 41.7086 44.0674 42.2834 43.7801C42.8496 43.497 43.3485 43.107 43.7109 42.5635C44.064 42.0337 44.3752 41.2281 44.3752 39.9583V33.3311C44.3752 32.113 43.3878 31.125 42.1668 31.125H35.5418V39.9583C35.5418 41.2281 35.853 42.0337 36.2061 42.5635C36.5685 43.107 37.0673 43.497 37.6336 43.7801C38.2084 44.0674 38.8099 44.2222 39.2865 44.3015C39.5195 44.3403 39.7087 44.3589 39.8311 44.3677C40.0974 44.3867 40.3686 44.3452 40.6307 44.3015Z" fill="url(#paint0_linear_81_2)"/>
<path d="M9.0415 15.6667C9.0415 14.447 10.0302 13.4583 11.2498 13.4583H24.4998C25.7195 13.4583 26.7082 14.447 26.7082 15.6667C26.7082 16.8863 25.7195 17.875 24.4998 17.875H11.2498C10.0302 17.875 9.0415 16.8863 9.0415 15.6667Z" fill="url(#paint1_linear_81_2)"/>
<path d="M9.0415 24.5C9.0415 23.2803 10.0302 22.2917 11.2498 22.2917H24.4998C25.7195 22.2917 26.7082 23.2803 26.7082 24.5C26.7082 25.7197 25.7195 26.7083 24.4998 26.7083H11.2498C10.0302 26.7083 9.0415 25.7197 9.0415 24.5Z" fill="url(#paint2_linear_81_2)"/>
<path d="M9.0415 33.3333C9.0415 32.1137 10.0302 31.125 11.2498 31.125H24.4998C25.7195 31.125 26.7082 32.1137 26.7082 33.3333C26.7082 34.553 25.7195 35.5417 24.4998 35.5417H11.2498C10.0302 35.5417 9.0415 34.553 9.0415 33.3333Z" fill="url(#paint3_linear_81_2)"/>
<defs>
<linearGradient id="paint0_linear_81_2" x1="24.5002" y1="0.208328" x2="24.5002" y2="48.7917" gradientUnits="userSpaceOnUse">
<stop stop-color="#0E75B5"/>
<stop offset="1" stop-color="#156496"/>
</linearGradient>
<linearGradient id="paint1_linear_81_2" x1="17.8748" y1="13.4583" x2="17.8748" y2="17.875" gradientUnits="userSpaceOnUse">
<stop stop-color="#0E75B5"/>
<stop offset="1" stop-color="#156496"/>
</linearGradient>
<linearGradient id="paint2_linear_81_2" x1="17.8748" y1="22.2917" x2="17.8748" y2="26.7083" gradientUnits="userSpaceOnUse">
<stop stop-color="#0E75B5"/>
<stop offset="1" stop-color="#156496"/>
</linearGradient>
<linearGradient id="paint3_linear_81_2" x1="17.8748" y1="31.125" x2="17.8748" y2="35.5417" gradientUnits="userSpaceOnUse">
<stop stop-color="#0E75B5"/>
<stop offset="1" stop-color="#156496"/>
</linearGradient>
</defs>
</svg>
