<svg width="34" height="44" viewBox="0 0 34 44" fill="none" xmlns="http://www.w3.org/2000/svg">
<path d="M1.77539 42.625V1.375H18.2754V14.4375V15.125H18.9629H32.0254V42.625H1.77539ZM19.6504 1.94219L31.4582 13.75H19.6504V1.94219ZM19.6504 0H1.77539H0.400391V1.375V42.625V44H1.77539H32.0254H33.4004V42.625V13.75L19.6504 0ZM13.2652 23.1773L13.7551 22.6875L12.7754 21.7164L12.2855 22.2062L7.47305 27.0187L6.9918 27.5L7.48164 27.9898L12.2941 32.8023L12.784 33.2922L13.7465 32.3125L13.2566 31.8227L8.93398 27.5L13.2566 23.1773H13.2652ZM21.5152 22.2062L21.0254 21.7164L20.0543 22.6875L20.5441 23.1773L24.8668 27.5L20.5441 31.8227L20.0543 32.3125L21.0254 33.2836L21.5152 32.7937L26.3277 27.9812L26.8176 27.4914L26.3277 27.0016L21.5152 22.1891V22.2062Z" fill="#56BFFF"/>
</svg>
