<svg width="34" height="44" viewBox="0 0 34 44" fill="none" xmlns="http://www.w3.org/2000/svg">
<path d="M1.92969 42.625V1.375H18.4297V14.4375V15.125H19.1172H32.1797V42.625H1.92969ZM19.8047 1.94219L31.6125 13.75H19.8047V1.94219ZM19.8047 0H1.92969H0.554688V1.375V42.625V44H1.92969H32.1797H33.5547V42.625V13.75L19.8047 0ZM13.4195 23.1773L13.9094 22.6875L12.9297 21.7164L12.4398 22.2062L7.62734 27.0187L7.14609 27.5L7.63594 27.9898L12.4484 32.8023L12.9383 33.2922L13.9008 32.3125L13.4109 31.8227L9.08828 27.5L13.4109 23.1773H13.4195ZM21.6695 22.2062L21.1797 21.7164L20.2086 22.6875L20.6984 23.1773L25.0211 27.5L20.6984 31.8227L20.2086 32.3125L21.1797 33.2836L21.6695 32.7937L26.482 27.9812L26.9719 27.4914L26.482 27.0016L21.6695 22.1891V22.2062Z" fill="#008DE4"/>
</svg>
