<svg width="33" height="44" viewBox="0 0 33 44" fill="none" xmlns="http://www.w3.org/2000/svg">
<path d="M1.375 42.625V1.375H17.875V14.4375V15.125H18.5625H31.625V42.625H1.375ZM19.25 1.94219L31.0578 13.75H19.25V1.94219ZM19.25 0H1.375H0V1.375V42.625V44H1.375H31.625H33V42.625V13.75L19.25 0ZM8.9375 22H8.25V23.375H8.9375H24.0625H24.75V22H24.0625H8.9375ZM8.9375 27.5H8.25V28.875H8.9375H24.0625H24.75V27.5H24.0625H8.9375ZM8.9375 33H8.25V34.375H8.9375H24.0625H24.75V33H24.0625H8.9375Z" fill="#008DE4"/>
</svg>
