<svg width="34" height="44" viewBox="0 0 34 44" fill="none" xmlns="http://www.w3.org/2000/svg">
<path d="M1.97461 42.625V1.375H18.4746V14.4375V15.125H19.1621H32.2246V42.625H1.97461ZM19.8496 1.94219L31.6574 13.75H19.8496V1.94219ZM19.8496 0H1.97461H0.599609V1.375V42.625V44H1.97461H32.2246H33.5996V42.625V13.75L19.8496 0ZM9.53711 22H8.84961V23.375H9.53711H24.6621H25.3496V22H24.6621H9.53711ZM9.53711 27.5H8.84961V28.875H9.53711H24.6621H25.3496V27.5H24.6621H9.53711ZM9.53711 33H8.84961V34.375H9.53711H24.6621H25.3496V33H24.6621H9.53711Z" fill="#56BFFF"/>
</svg>
