<svg width="38" height="47" viewBox="0 0 38 47" fill="none" xmlns="http://www.w3.org/2000/svg">
<path fill-rule="evenodd" clip-rule="evenodd" d="M6.33333 0C2.83554 0 0 2.86946 0 6.40909V40.5909C0 44.1307 2.83554 47 6.33333 47H31.6667C35.1646 47 38 44.1307 38 40.5909V16.7244C38 15.0246 37.3327 13.3944 36.145 12.1925L25.9517 1.87718C24.764 0.675241 23.153 0 21.4734 0H6.33333ZM4.22222 6.40909C4.22222 5.22922 5.16741 4.27273 6.33333 4.27273H19V14.9545C19 17.3143 20.8903 19.2273 23.2222 19.2273H33.7778V40.5909C33.7778 41.7708 32.8326 42.7273 31.6667 42.7273H6.33333C5.16741 42.7273 4.22222 41.7708 4.22222 40.5909V6.40909ZM32.9034 14.9545L23.2222 5.15763V14.9545H32.9034Z" fill="url(#paint0_linear_79_210)"/>
<defs>
<linearGradient id="paint0_linear_79_210" x1="19" y1="0" x2="19" y2="47" gradientUnits="userSpaceOnUse">
<stop stop-color="#0E75B5"/>
<stop offset="1" stop-color="#156496"/>
</linearGradient>
</defs>
</svg>
