<svg width="20" height="20" viewBox="0 0 20 20" fill="none" xmlns="http://www.w3.org/2000/svg">
<g clip-path="url(#clip0_10453_588)">
<path d="M7.18437 14.4187C7.18437 14.4812 7.1125 14.5312 7.02187 14.5312C6.91875 14.5406 6.84688 14.4906 6.84688 14.4187C6.84688 14.3562 6.91875 14.3062 7.00938 14.3062C7.10313 14.2969 7.18437 14.3469 7.18437 14.4187ZM6.2125 14.2781C6.19063 14.3406 6.25313 14.4125 6.34688 14.4312C6.42813 14.4625 6.52188 14.4312 6.54063 14.3687C6.55938 14.3062 6.5 14.2344 6.40625 14.2063C6.325 14.1844 6.23438 14.2156 6.2125 14.2781ZM7.59375 14.225C7.50312 14.2469 7.44062 14.3063 7.45 14.3781C7.45937 14.4406 7.54063 14.4813 7.63438 14.4594C7.725 14.4375 7.7875 14.3781 7.77812 14.3156C7.76875 14.2563 7.68438 14.2156 7.59375 14.225ZM9.65 2.25C5.31563 2.25 2 5.54063 2 9.875C2 13.3406 4.18125 16.3063 7.29688 17.35C7.69688 17.4219 7.8375 17.175 7.8375 16.9719C7.8375 16.7781 7.82812 15.7094 7.82812 15.0531C7.82812 15.0531 5.64063 15.5219 5.18125 14.1219C5.18125 14.1219 4.825 13.2125 4.3125 12.9781C4.3125 12.9781 3.59687 12.4875 4.3625 12.4969C4.3625 12.4969 5.14062 12.5594 5.56875 13.3031C6.25312 14.5094 7.4 14.1625 7.84688 13.9563C7.91875 13.4563 8.12188 13.1094 8.34688 12.9031C6.6 12.7094 4.8375 12.4562 4.8375 9.45C4.8375 8.59062 5.075 8.15938 5.575 7.60938C5.49375 7.40625 5.22813 6.56875 5.65625 5.4875C6.30937 5.28437 7.8125 6.33125 7.8125 6.33125C8.4375 6.15625 9.10938 6.06563 9.775 6.06563C10.4406 6.06563 11.1125 6.15625 11.7375 6.33125C11.7375 6.33125 13.2406 5.28125 13.8938 5.4875C14.3219 6.57187 14.0563 7.40625 13.975 7.60938C14.475 8.1625 14.7812 8.59375 14.7812 9.45C14.7812 12.4656 12.9406 12.7062 11.1938 12.9031C11.4813 13.15 11.725 13.6187 11.725 14.3531C11.725 15.4062 11.7156 16.7094 11.7156 16.9656C11.7156 17.1687 11.8594 17.4156 12.2563 17.3438C15.3813 16.3062 17.5 13.3406 17.5 9.875C17.5 5.54063 13.9844 2.25 9.65 2.25ZM5.0375 13.0281C4.99687 13.0594 5.00625 13.1313 5.05938 13.1906C5.10938 13.2406 5.18125 13.2625 5.22187 13.2219C5.2625 13.1906 5.25313 13.1187 5.2 13.0594C5.15 13.0094 5.07812 12.9875 5.0375 13.0281ZM4.7 12.775C4.67813 12.8156 4.70937 12.8656 4.77187 12.8969C4.82187 12.9281 4.88438 12.9187 4.90625 12.875C4.92812 12.8344 4.89687 12.7844 4.83437 12.7531C4.77187 12.7344 4.72188 12.7437 4.7 12.775ZM5.7125 13.8875C5.6625 13.9281 5.68125 14.0219 5.75312 14.0813C5.825 14.1531 5.91562 14.1625 5.95625 14.1125C5.99687 14.0719 5.97813 13.9781 5.91563 13.9187C5.84688 13.8469 5.75313 13.8375 5.7125 13.8875ZM5.35625 13.4281C5.30625 13.4594 5.30625 13.5406 5.35625 13.6125C5.40625 13.6844 5.49063 13.7156 5.53125 13.6844C5.58125 13.6437 5.58125 13.5625 5.53125 13.4906C5.4875 13.4188 5.40625 13.3875 5.35625 13.4281Z" fill="#AFC4CB"/>
</g>
<defs>
<clipPath id="clip0_10453_588">
<rect width="15.5" height="16" fill="white" transform="translate(2 2)"/>
</clipPath>
</defs>
</svg>
