<svg width="44" height="36" viewBox="0 0 44 36" fill="none" xmlns="http://www.w3.org/2000/svg">
<path d="M1.22222 2.08008V6.97852H42.7778V2.08008H1.22222ZM1.22222 8.20312V33.9199H42.7778V8.20312H1.22222ZM0 0.855469H1.22222H42.7778H44V2.08008V33.9199V35.1445H42.7778H1.22222H0V33.9199V2.08008V0.855469ZM14.6667 20.4492C15.6391 20.4492 16.5718 20.0622 17.2594 19.3732C17.947 18.6842 18.3333 17.7497 18.3333 16.7754C18.3333 15.801 17.947 14.8666 17.2594 14.1776C16.5718 13.4886 15.6391 13.1016 14.6667 13.1016C13.6942 13.1016 12.7616 13.4886 12.0739 14.1776C11.3863 14.8666 11 15.801 11 16.7754C11 17.7497 11.3863 18.6842 12.0739 19.3732C12.7616 20.0622 13.6942 20.4492 14.6667 20.4492ZM14.6667 11.877C15.9633 11.877 17.2068 12.393 18.1236 13.3117C19.0405 14.2303 19.5556 15.4762 19.5556 16.7754C19.5556 18.0745 19.0405 19.3205 18.1236 20.2391C17.2068 21.1577 15.9633 21.6738 14.6667 21.6738C13.3701 21.6738 12.1265 21.1577 11.2097 20.2391C10.2929 19.3205 9.77778 18.0745 9.77778 16.7754C9.77778 15.4762 10.2929 14.2303 11.2097 13.3117C12.1265 12.393 13.3701 11.877 14.6667 11.877ZM7.80694 30.2461H6.51597L8.55555 24.123H20.7778L22.8174 30.2461H21.5264L19.8993 25.3477H9.43403L7.80694 30.2461ZM26.8889 15.5508H27.5H38.5H39.1111V16.7754H38.5H27.5H26.8889V15.5508ZM26.8889 20.4492H27.5H38.5H39.1111V21.6738H38.5H27.5H26.8889V20.4492ZM26.8889 25.3477H27.5H38.5H39.1111V26.5723H38.5H27.5H26.8889V25.3477Z" fill="#008DE4"/>
</svg>
