<svg width="45" height="36" viewBox="0 0 45 36" fill="none" xmlns="http://www.w3.org/2000/svg">
<path d="M2.02203 2.08008V6.97852H43.5776V2.08008H2.02203ZM2.02203 8.20312V33.9199H43.5776V8.20312H2.02203ZM0.799805 0.855469H2.02203H43.5776H44.7998V2.08008V33.9199V35.1445H43.5776H2.02203H0.799805V33.9199V2.08008V0.855469ZM15.4665 20.4492C16.4389 20.4492 17.3716 20.0622 18.0592 19.3732C18.7468 18.6842 19.1331 17.7497 19.1331 16.7754C19.1331 15.801 18.7468 14.8666 18.0592 14.1776C17.3716 13.4886 16.4389 13.1016 15.4665 13.1016C14.494 13.1016 13.5614 13.4886 12.8737 14.1776C12.1861 14.8666 11.7998 15.801 11.7998 16.7754C11.7998 17.7497 12.1861 18.6842 12.8737 19.3732C13.5614 20.0622 14.494 20.4492 15.4665 20.4492ZM15.4665 11.877C16.7631 11.877 18.0066 12.393 18.9234 13.3117C19.8403 14.2303 20.3554 15.4762 20.3554 16.7754C20.3554 18.0745 19.8403 19.3205 18.9234 20.2391C18.0066 21.1577 16.7631 21.6738 15.4665 21.6738C14.1699 21.6738 12.9263 21.1577 12.0095 20.2391C11.0927 19.3205 10.5776 18.0745 10.5776 16.7754C10.5776 15.4762 11.0927 14.2303 12.0095 13.3117C12.9263 12.393 14.1699 11.877 15.4665 11.877ZM8.60675 30.2461H7.31578L9.35536 24.123H21.5776L23.6172 30.2461H22.3262L20.6991 25.3477H10.2338L8.60675 30.2461ZM27.6887 15.5508H28.2998H39.2998H39.9109V16.7754H39.2998H28.2998H27.6887V15.5508ZM27.6887 20.4492H28.2998H39.2998H39.9109V21.6738H39.2998H28.2998H27.6887V20.4492ZM27.6887 25.3477H28.2998H39.2998H39.9109V26.5723H39.2998H28.2998H27.6887V25.3477Z" fill="#56BFFF"/>
</svg>
