<svg width="22" height="22" viewBox="0 0 22 22" fill="none" xmlns="http://www.w3.org/2000/svg">
<path d="M6.46667 11L9.2 13.7333C9.2 13.7333 12.5267 10.4733 15 8.00002M18.2667 13.7333C17.3333 14.6667 19.4 17.1333 18.2667 18.2667C17.1333 19.4 14.6 17.3333 13.7333 18.2667C12.8 19.2 12.4 21 11 21C9.6 21 9.2 19.2 8.26667 18.2667C7.33333 17.3333 4.86667 19.4 3.73333 18.2667C2.6 17.1333 4.66667 14.6 3.73333 13.7333C2.8 12.8 1 12.4 1 11C1 9.60002 2.8 9.20002 3.73333 8.26668C4.66667 7.33335 2.6 4.86668 3.73333 3.73335C4.86667 2.60002 7.4 4.66668 8.26667 3.73335C9.13333 2.80002 9.6 1.00002 11 1.00002C12.4 1.00002 12.8 2.80002 13.7333 3.73335C14.6667 4.66668 17.1333 2.60002 18.2667 3.73335C19.4 4.86668 17.3333 7.40001 18.2667 8.26668C19.2 9.20002 21 9.60002 21 11C21 12.4 19.2 12.8 18.2667 13.7333Z" stroke="url(#paint0_linear_212_23)" stroke-width="2" stroke-miterlimit="133.333" stroke-linecap="round" stroke-linejoin="round"/>
<defs>
<linearGradient id="paint0_linear_212_23" x1="11" y1="1.00002" x2="11" y2="21" gradientUnits="userSpaceOnUse">
<stop stop-color="#0E75B5"/>
<stop offset="1" stop-color="#156496"/>
</linearGradient>
</defs>
</svg>
