<svg width="44" height="42" viewBox="0 0 44 42" fill="none" xmlns="http://www.w3.org/2000/svg">
<path d="M23.5727 0.947668L24.0625 0.457825L25.0336 1.43751L24.5437 1.92736L18.1586 8.31251H43.3125H44V9.00001V19.3125V20H42.625V19.3125V9.68751H18.1586L24.5437 16.0727L25.0336 16.5625L24.0625 17.5336L23.5727 17.0438L16.0102 9.48126L15.5203 8.99142L16.0102 8.50157L23.5727 0.939075V0.947668ZM20.4187 22.9477L27.9812 30.5102L28.4711 31L27.9812 31.4899L20.4187 39.0524L19.9289 39.5422L18.9664 38.5625L19.4562 38.0727L25.8414 31.6875H1.375V41.3125V42H0V41.3125V31V30.3125H0.6875H25.8414L19.4562 23.9274L18.9664 23.4375L19.9375 22.4664L20.4273 22.9563L20.4187 22.9477ZM38.5 35.125C39.594 35.125 40.6432 34.6904 41.4168 33.9168C42.1904 33.1432 42.625 32.094 42.625 31C42.625 29.906 42.1904 28.8568 41.4168 28.0832C40.6432 27.3096 39.594 26.875 38.5 26.875C37.406 26.875 36.3568 27.3096 35.5832 28.0832C34.8096 28.8568 34.375 29.906 34.375 31C34.375 32.094 34.8096 33.1432 35.5832 33.9168C36.3568 34.6904 37.406 35.125 38.5 35.125ZM38.5 25.5C39.9587 25.5 41.3576 26.0795 42.3891 27.1109C43.4205 28.1424 44 29.5413 44 31C44 32.4587 43.4205 33.8576 42.3891 34.8891C41.3576 35.9205 39.9587 36.5 38.5 36.5C37.0413 36.5 35.6424 35.9205 34.6109 34.8891C33.5795 33.8576 33 32.4587 33 31C33 29.5413 33.5795 28.1424 34.6109 27.1109C35.6424 26.0795 37.0413 25.5 38.5 25.5ZM1.375 9.00001C1.375 9.54171 1.4817 10.0781 1.689 10.5786C1.8963 11.079 2.20014 11.5338 2.58318 11.9168C2.96623 12.2999 3.42096 12.6037 3.92143 12.811C4.4219 13.0183 4.9583 13.125 5.5 13.125C6.0417 13.125 6.5781 13.0183 7.07857 12.811C7.57904 12.6037 8.03377 12.2999 8.41681 11.9168C8.79986 11.5338 9.1037 11.079 9.311 10.5786C9.5183 10.0781 9.625 9.54171 9.625 9.00001C9.625 8.45831 9.5183 7.92191 9.311 7.42144C9.1037 6.92097 8.79986 6.46624 8.41681 6.0832C8.03377 5.70015 7.57904 5.39631 7.07857 5.18901C6.5781 4.98171 6.0417 4.87501 5.5 4.87501C4.9583 4.87501 4.4219 4.98171 3.92143 5.18901C3.42096 5.39631 2.96623 5.70015 2.58318 6.0832C2.20014 6.46624 1.8963 6.92097 1.689 7.42144C1.4817 7.92191 1.375 8.45831 1.375 9.00001ZM11 9.00001C11 10.4587 10.4205 11.8576 9.38909 12.8891C8.35764 13.9205 6.95869 14.5 5.5 14.5C4.04131 14.5 2.64236 13.9205 1.61091 12.8891C0.579463 11.8576 0 10.4587 0 9.00001C0 7.54132 0.579463 6.14237 1.61091 5.11092C2.64236 4.07947 4.04131 3.50001 5.5 3.50001C6.95869 3.50001 8.35764 4.07947 9.38909 5.11092C10.4205 6.14237 11 7.54132 11 9.00001Z" fill="#008DE4"/>
</svg>
