<svg width="48" height="51" viewBox="0 0 48 51" fill="none" xmlns="http://www.w3.org/2000/svg">
<path d="M25.0753 43.7708C25.0978 43.7408 25.1212 43.7113 25.1421 43.6799C25.1624 43.6496 25.18 43.6181 25.1985 43.5871C25.2154 43.5587 25.2332 43.5309 25.2489 43.5017C25.2658 43.47 25.2803 43.4374 25.2955 43.405C25.3099 43.3745 25.3251 43.3445 25.3381 43.3132C25.3511 43.2819 25.3616 43.2498 25.373 43.2179C25.385 43.1843 25.3979 43.1513 25.4083 43.117C25.4179 43.0851 25.425 43.0527 25.4331 43.0205C25.4419 42.9855 25.4517 42.951 25.4588 42.9154C25.4661 42.8781 25.4705 42.8404 25.476 42.8028C25.4804 42.7719 25.4863 42.7414 25.4894 42.7099C25.5032 42.5705 25.5032 42.4299 25.4894 42.2905C25.4863 42.2591 25.4805 42.2286 25.476 42.1975C25.4706 42.16 25.4662 42.1222 25.4588 42.085C25.4517 42.0493 25.4419 42.0148 25.4331 41.9799C25.425 41.9476 25.4179 41.9152 25.4083 41.8834C25.3979 41.8491 25.385 41.8159 25.373 41.7824C25.3615 41.7506 25.3511 41.7185 25.3381 41.6871C25.3252 41.6558 25.3099 41.6259 25.2955 41.5954C25.2803 41.563 25.2659 41.5303 25.2489 41.4987C25.2332 41.4695 25.2154 41.4417 25.1985 41.4133C25.18 41.3822 25.1623 41.3507 25.1421 41.3205C25.1211 41.2891 25.0978 41.2596 25.0753 41.2295C25.0562 41.2041 25.0386 41.1781 25.0184 41.1534C24.9747 41.1001 24.9284 41.0488 24.8797 41C24.879 40.9992 24.8783 40.9984 24.8776 40.9977L18.5026 34.6227C17.6728 33.7929 16.3273 33.7929 15.4974 34.6227C14.6676 35.4526 14.6676 36.7981 15.4974 37.6279L18.2449 40.3754H14.8751C11.3503 40.3754 8.50007 37.5251 8.50007 34.0004V12.75C10.8467 12.75 12.7501 10.8466 12.7501 8.49997V4.25003C12.75 1.90344 10.8467 0 8.50007 0H4.25003C1.90344 0 0 1.90344 0 4.25003V8.50007C0 10.8466 1.90344 12.75 4.25003 12.75V34C4.25003 39.8719 9.00309 44.625 14.8751 44.625H18.2449L15.4974 47.3724C14.6676 48.2023 14.6676 49.5478 15.4974 50.3776C16.3273 51.2075 17.6728 51.2075 18.5026 50.3776L24.8776 44.0026C24.8784 44.0018 24.879 44.001 24.8797 44.0004C24.9283 43.9515 24.9746 43.9003 25.0184 43.847C25.0386 43.8222 25.0562 43.7962 25.0753 43.7708ZM4.25003 4.25003H8.50007V8.50007H4.25003V4.25003Z" fill="url(#paint0_linear_80_219)"/>
<path d="M43.6252 38.25V17C43.6252 11.1281 38.8721 6.37499 33.0002 6.37499H29.6304L32.3778 3.62757C33.2077 2.79772 33.2077 1.4522 32.3778 0.622354C31.548 -0.207492 30.2024 -0.207492 29.3726 0.622354L22.9976 6.99735C22.9972 6.99775 22.9969 6.99815 22.9965 6.99855C22.9475 7.04766 22.901 7.09935 22.8569 7.15304C22.8366 7.17765 22.8191 7.20355 22.8003 7.22875C22.7777 7.25903 22.7542 7.28861 22.7331 7.32009C22.7129 7.35027 22.6954 7.38165 22.6769 7.41272C22.6598 7.44121 22.642 7.469 22.6263 7.49839C22.6093 7.53007 22.595 7.56264 22.5797 7.59491C22.5653 7.62549 22.5501 7.65557 22.5371 7.68685C22.5242 7.71823 22.5137 7.7502 22.5022 7.78208C22.4902 7.81564 22.4773 7.84881 22.4669 7.88318C22.4572 7.91505 22.4501 7.94743 22.4421 7.9796C22.4332 8.01456 22.4235 8.04913 22.4164 8.08479C22.409 8.12214 22.4046 8.15979 22.3992 8.19735C22.3949 8.22833 22.3889 8.25891 22.3858 8.29028C22.3721 8.42974 22.3721 8.57029 22.3858 8.70974C22.3889 8.74112 22.3948 8.7716 22.3992 8.80258C22.4046 8.84023 22.409 8.87788 22.4165 8.91513C22.4235 8.95079 22.4333 8.98526 22.4422 9.02022C22.4502 9.0525 22.4573 9.08487 22.467 9.11674C22.4773 9.15101 22.4902 9.18418 22.5022 9.21765C22.5137 9.24952 22.5242 9.2816 22.5371 9.31297C22.5501 9.34425 22.5653 9.37433 22.5797 9.40481C22.595 9.43719 22.6093 9.46976 22.6263 9.50143C22.6419 9.53072 22.6598 9.55851 22.6768 9.587C22.6953 9.61808 22.7128 9.64945 22.733 9.67974C22.7541 9.71111 22.7775 9.7407 22.8001 9.77088C22.819 9.79618 22.8366 9.82218 22.8569 9.84678C22.901 9.90047 22.9474 9.95217 22.9965 10.0013C22.9969 10.0017 22.9972 10.0021 22.9976 10.0025L29.3726 16.3775C30.2024 17.2073 31.548 17.2073 32.3778 16.3775C33.2077 15.5476 33.2077 14.2021 32.3778 13.3723L29.6304 10.6248H33.0002C36.525 10.6248 39.3752 13.475 39.3752 16.9998V38.25C37.0286 38.25 35.1251 40.1534 35.1251 42.5V46.7501C35.1251 49.0967 37.0286 51.0001 39.3752 51.0001H43.6252C45.9718 51.0001 47.8752 49.0967 47.8752 46.7501V42.5C47.8752 40.1534 45.9718 38.25 43.6252 38.25ZM43.6252 46.75H39.3752V42.4999H43.6252V46.75Z" fill="url(#paint1_linear_80_219)"/>
<defs>
<linearGradient id="paint0_linear_80_219" x1="12.7499" y1="0" x2="12.7499" y2="51" gradientUnits="userSpaceOnUse">
<stop stop-color="#0E75B5"/>
<stop offset="1" stop-color="#156496"/>
</linearGradient>
<linearGradient id="paint1_linear_80_219" x1="35.1254" y1="-3.05176e-05" x2="35.1254" y2="51.0001" gradientUnits="userSpaceOnUse">
<stop stop-color="#0E75B5"/>
<stop offset="1" stop-color="#156496"/>
</linearGradient>
</defs>
</svg>
