<svg width="45" height="42" viewBox="0 0 45 42" fill="none" xmlns="http://www.w3.org/2000/svg">
<path d="M23.7728 0.947851L24.2627 0.458008L25.2338 1.4377L24.7439 1.92754L18.3588 8.31269H43.5127H44.2002V9.00019V19.3127V20.0002H42.8252V19.3127V9.68769H18.3588L24.7439 16.0728L25.2338 16.5627L24.2627 17.5338L23.7728 17.0439L16.2104 9.48145L15.7205 8.9916L16.2104 8.50176L23.7728 0.939258V0.947851ZM20.6189 22.9478L28.1814 30.5103L28.6713 31.0002L28.1814 31.49L20.6189 39.0525L20.1291 39.5424L19.1666 38.5627L19.6564 38.0728L26.0416 31.6877H1.5752V41.3127V42.0002H0.200195V41.3127V31.0002V30.3127H0.887695H26.0416L19.6564 23.9275L19.1666 23.4377L20.1377 22.4666L20.6275 22.9564L20.6189 22.9478ZM38.7002 35.1252C39.7942 35.1252 40.8434 34.6906 41.617 33.917C42.3906 33.1434 42.8252 32.0942 42.8252 31.0002C42.8252 29.9062 42.3906 28.857 41.617 28.0834C40.8434 27.3098 39.7942 26.8752 38.7002 26.8752C37.6062 26.8752 36.557 27.3098 35.7834 28.0834C35.0098 28.857 34.5752 29.9062 34.5752 31.0002C34.5752 32.0942 35.0098 33.1434 35.7834 33.917C36.557 34.6906 37.6062 35.1252 38.7002 35.1252ZM38.7002 25.5002C40.1589 25.5002 41.5578 26.0797 42.5893 27.1111C43.6207 28.1426 44.2002 29.5415 44.2002 31.0002C44.2002 32.4589 43.6207 33.8578 42.5893 34.8893C41.5578 35.9207 40.1589 36.5002 38.7002 36.5002C37.2415 36.5002 35.8426 35.9207 34.8111 34.8893C33.7797 33.8578 33.2002 32.4589 33.2002 31.0002C33.2002 29.5415 33.7797 28.1426 34.8111 27.1111C35.8426 26.0797 37.2415 25.5002 38.7002 25.5002ZM1.5752 9.00019C1.5752 9.5419 1.68189 10.0783 1.88919 10.5788C2.09649 11.0792 2.40034 11.534 2.78338 11.917C3.16642 12.3001 3.62116 12.6039 4.12163 12.8112C4.62209 13.0185 5.15849 13.1252 5.70019 13.1252C6.2419 13.1252 6.7783 13.0185 7.27876 12.8112C7.77923 12.6039 8.23397 12.3001 8.61701 11.917C9.00005 11.534 9.3039 11.0792 9.5112 10.5788C9.7185 10.0783 9.82519 9.5419 9.82519 9.00019C9.82519 8.45849 9.7185 7.92209 9.5112 7.42163C9.3039 6.92116 9.00005 6.46642 8.61701 6.08338C8.23397 5.70034 7.77923 5.39649 7.27876 5.18919C6.7783 4.98189 6.2419 4.8752 5.70019 4.8752C5.15849 4.8752 4.62209 4.98189 4.12163 5.18919C3.62116 5.39649 3.16642 5.70034 2.78338 6.08338C2.40034 6.46642 2.09649 6.92116 1.88919 7.42163C1.68189 7.92209 1.5752 8.45849 1.5752 9.00019ZM11.2002 9.00019C11.2002 10.4589 10.6207 11.8578 9.58928 12.8893C8.55783 13.9207 7.15889 14.5002 5.70019 14.5002C4.2415 14.5002 2.84256 13.9207 1.81111 12.8893C0.779658 11.8578 0.200195 10.4589 0.200195 9.00019C0.200195 7.5415 0.779658 6.14256 1.81111 5.11111C2.84256 4.07966 4.2415 3.5002 5.70019 3.5002C7.15889 3.5002 8.55783 4.07966 9.58928 5.11111C10.6207 6.14256 11.2002 7.5415 11.2002 9.00019Z" fill="#56BFFF"/>
</svg>
