<svg width="60" height="48" viewBox="0 0 60 48" fill="none" xmlns="http://www.w3.org/2000/svg">
<path d="M45.0015 27C46.6582 27 48.0012 28.3431 48.0012 30C48.0012 31.5385 46.8432 32.8065 45.3513 32.9798L45.0015 33H10.25L20.1253 42.8787C21.2067 43.9601 21.2898 45.6618 20.3749 46.8387L20.1253 47.1213C19.044 48.2028 17.3425 48.286 16.1657 47.3709L15.8831 47.1213L0.884605 32.1213C-0.922939 30.3136 0.222989 27.2785 2.66485 27.018L3.00571 27H45.0015ZM43.8343 0.629113L44.1169 0.87868L59.1154 15.8787C60.9229 17.6864 59.777 20.7215 57.3351 20.982L56.9943 21H14.9985C13.3418 21 11.9988 19.6569 11.9988 18C11.9988 16.4615 13.1568 15.1935 14.6487 15.0202L14.9985 15H49.75L39.8747 5.12132C38.7933 4.03987 38.7102 2.33818 39.6251 1.1613L39.8747 0.87868C40.956 -0.202772 42.6576 -0.285961 43.8343 0.629113Z" fill="url(#paint0_linear_79_205)"/>
<defs>
<linearGradient id="paint0_linear_79_205" x1="30" y1="0" x2="30" y2="48" gradientUnits="userSpaceOnUse">
<stop stop-color="#0E75B5"/>
<stop offset="1" stop-color="#156496"/>
</linearGradient>
</defs>
</svg>
